<mxfile host="app.diagrams.net" modified="2022-01-03T14:53:51.223Z" agent="5.0 (X11)" etag="VAf5ChxVVFc4uEWbHZpU" version="16.1.2" type="github">
  <diagram id="yDxjqq3mJHBqZDXArIZp" name="Page-1">
    <mxGraphModel dx="976" dy="881" grid="1" gridSize="10" guides="1" tooltips="1" connect="1" arrows="1" fold="1" page="1" pageScale="1" pageWidth="850" pageHeight="1100" math="0" shadow="0">
      <root>
        <mxCell id="0" />
        <mxCell id="1" parent="0" />
        <mxCell id="PzDvmg0Q03V_2hOCLgDr-70" value="" style="rounded=0;whiteSpace=wrap;html=1;shadow=0;dashed=0;sketch=0;fontFamily=Helvetica;fontSize=12;fontColor=#230E3E;strokeColor=#000000;fillColor=none;" vertex="1" parent="1">
          <mxGeometry x="1170" y="10" width="256.5" height="300" as="geometry" />
        </mxCell>
        <mxCell id="PzDvmg0Q03V_2hOCLgDr-9" value="&lt;div&gt;ObsPortal&lt;/div&gt;" style="points=[[0,0],[0.25,0],[0.5,0],[0.75,0],[1,0],[1,0.25],[1,0.5],[1,0.75],[1,1],[0.75,1],[0.5,1],[0.25,1],[0,1],[0,0.75],[0,0.5],[0,0.25]];outlineConnect=0;gradientColor=none;html=1;whiteSpace=wrap;fontSize=12;fontStyle=0;container=1;pointerEvents=0;collapsible=0;recursiveResize=0;shape=mxgraph.aws4.group;grIcon=mxgraph.aws4.group_on_premise;strokeColor=#CC6600;fillColor=none;verticalAlign=top;align=left;spacingLeft=30;fontColor=#5A6C86;dashed=0;" vertex="1" parent="1">
          <mxGeometry x="320" y="183" width="130" height="149" as="geometry" />
        </mxCell>
        <mxCell id="PzDvmg0Q03V_2hOCLgDr-86" value="" style="sketch=0;pointerEvents=1;shadow=0;dashed=0;html=1;strokeColor=#001DBC;fillColor=#0050ef;labelPosition=center;verticalLabelPosition=bottom;verticalAlign=top;outlineConnect=0;align=center;shape=mxgraph.office.services.central_management_service;comic=0;fontFamily=Helvetica;fontSize=12;fontColor=#ffffff;" vertex="1" parent="PzDvmg0Q03V_2hOCLgDr-9">
          <mxGeometry x="20" y="38" width="51" height="54" as="geometry" />
        </mxCell>
        <mxCell id="PzDvmg0Q03V_2hOCLgDr-16" value="&lt;div&gt;PostgreSQL / MySQL&lt;br&gt;&lt;/div&gt;" style="points=[[0,0],[0.25,0],[0.5,0],[0.75,0],[1,0],[1,0.25],[1,0.5],[1,0.75],[1,1],[0.75,1],[0.5,1],[0.25,1],[0,1],[0,0.75],[0,0.5],[0,0.25]];outlineConnect=0;gradientColor=none;html=1;whiteSpace=wrap;fontSize=12;fontStyle=0;container=1;pointerEvents=0;collapsible=0;recursiveResize=0;shape=mxgraph.aws4.group;grIcon=mxgraph.aws4.group_on_premise;strokeColor=#5A6C86;fillColor=none;verticalAlign=top;align=left;spacingLeft=30;fontColor=#5A6C86;dashed=0;" vertex="1" parent="1">
          <mxGeometry x="440" y="10" width="280" height="137" as="geometry" />
        </mxCell>
        <mxCell id="PzDvmg0Q03V_2hOCLgDr-31" value="" style="sketch=0;shadow=0;dashed=0;html=1;strokeColor=#660000;fillColor=#fff2cc;labelPosition=center;verticalLabelPosition=bottom;verticalAlign=top;outlineConnect=0;align=center;shape=mxgraph.office.databases.database_cube;" vertex="1" parent="PzDvmg0Q03V_2hOCLgDr-16">
          <mxGeometry x="124" y="30" width="47" height="52" as="geometry" />
        </mxCell>
        <mxCell id="PzDvmg0Q03V_2hOCLgDr-47" value="" style="sketch=0;shadow=0;dashed=0;html=1;strokeColor=#660000;fillColor=#CCFFCC;labelPosition=center;verticalLabelPosition=bottom;verticalAlign=top;outlineConnect=0;align=center;shape=stencil(tVbRcoIwEPwaXm+SXALksUPb/4hKK1MEB1Dbv+9B1GmI2pjRGV7YI3ubzd2RBIt+bbZlIpjpt+VySPA1EWJvusosaoIFRdYWVBy0tkhjNqUFX81gFqYfCYrd4rigH7r2qzxUq+G4tGrWZVcNNnqwmExBqRHBt4S9ED4+WCzbpiEdVdv0E/Y+i3+0XfnZtbtm5QRO4a0Zc3qBU3jT7kep31YCs4J+7JtgkGUWmad1SeqquUrCEbL0fhLyQro8GTyCRkhIeQjPsm6nQ7z9lWtfdq6HUzYFUt+v2uPhOcj8fh4uQaErSACKhxBpQHyWj1yBzp10yIAHpZvp9ogEAo8wgHxTwiVKQUcUpE+ECDqoy2KclAyYm476SAY1gKv7PJz+NraKqG2fiMaMiihuf2vU2/JZRqLwshESMR0xB5XOm1sE6f6PiKaNiGiSC1vTwIJqO8ZJOqV5uhSyiAKgmTA3QIBWDyHSoCOOxN8ahv79bjuJBeFX/uR0A6jq2t4wLhBMS707woTai84E/AI=);" vertex="1" parent="PzDvmg0Q03V_2hOCLgDr-16">
          <mxGeometry x="124" y="57" width="47" height="52" as="geometry" />
        </mxCell>
        <mxCell id="PzDvmg0Q03V_2hOCLgDr-48" value="" style="sketch=0;shadow=0;dashed=0;html=1;strokeColor=#660000;fillColor=#CDA2BE;labelPosition=center;verticalLabelPosition=bottom;verticalAlign=top;outlineConnect=0;align=center;shape=stencil(tVbRcoIwEPwaXm+SXALksUPb/4hKK1MEB1Dbv+9B1GmI2pjRGV7YI3ubzd2RBIt+bbZlIpjpt+VySPA1EWJvusosaoIFRdYWVBy0tkhjNqUFX81gFqYfCYrd4rigH7r2qzxUq+G4tGrWZVcNNnqwmExBqRHBt4S9ED4+WCzbpiEdVdv0E/Y+i3+0XfnZtbtm5QRO4a0Zc3qBU3jT7kep31YCs4J+7JtgkGUWmad1SeqquUrCEbL0fhLyQro8GTyCRkhIeQjPsm6nQ7z9lWtfdq6HUzYFUt+v2uPhOcj8fh4uQaErSACKhxBpQHyWj1yBzp10yIAHpZvp9ogEAo8wgHxTwiVKQUcUpE+ECDqoy2KclAyYm476SAY1gKv7PJz+NraKqG2fiMaMiihuf2vU2/JZRqLwshESMR0xB5XOm1sE6f6PiKaNiGiSC1vTwIJqO8ZJOqV5uhSyiAKgmTA3QIBWDyHSoCOOxN8ahv79bjuJBeFX/uR0A6jq2t4wLhBMS707woTai84E/AI=);" vertex="1" parent="PzDvmg0Q03V_2hOCLgDr-16">
          <mxGeometry x="124" y="66" width="47" height="52" as="geometry" />
        </mxCell>
        <mxCell id="PzDvmg0Q03V_2hOCLgDr-49" value="" style="sketch=0;shadow=0;dashed=0;html=1;strokeColor=#660000;fillColor=#FF66B3;labelPosition=center;verticalLabelPosition=bottom;verticalAlign=top;outlineConnect=0;align=center;shape=stencil(tVbRcoIwEPwaXm+SXALksUPb/4hKK1MEB1Dbv+9B1GmI2pjRGV7YI3ubzd2RBIt+bbZlIpjpt+VySPA1EWJvusosaoIFRdYWVBy0tkhjNqUFX81gFqYfCYrd4rigH7r2qzxUq+G4tGrWZVcNNnqwmExBqRHBt4S9ED4+WCzbpiEdVdv0E/Y+i3+0XfnZtbtm5QRO4a0Zc3qBU3jT7kep31YCs4J+7JtgkGUWmad1SeqquUrCEbL0fhLyQro8GTyCRkhIeQjPsm6nQ7z9lWtfdq6HUzYFUt+v2uPhOcj8fh4uQaErSACKhxBpQHyWj1yBzp10yIAHpZvp9ogEAo8wgHxTwiVKQUcUpE+ECDqoy2KclAyYm476SAY1gKv7PJz+NraKqG2fiMaMiihuf2vU2/JZRqLwshESMR0xB5XOm1sE6f6PiKaNiGiSC1vTwIJqO8ZJOqV5uhSyiAKgmTA3QIBWDyHSoCOOxN8ahv79bjuJBeFX/uR0A6jq2t4wLhBMS707woTai84E/AI=);" vertex="1" parent="PzDvmg0Q03V_2hOCLgDr-16">
          <mxGeometry x="124" y="75" width="47" height="53" as="geometry" />
        </mxCell>
        <mxCell id="PzDvmg0Q03V_2hOCLgDr-50" value="" style="sketch=0;shadow=0;dashed=0;html=1;strokeColor=#660000;fillColor=#CDA2BE;labelPosition=center;verticalLabelPosition=bottom;verticalAlign=top;outlineConnect=0;align=center;shape=stencil(tVbRcoIwEPwaXm+SXALksUPb/4hKK1MEB1Dbv+9B1GmI2pjRGV7YI3ubzd2RBIt+bbZlIpjpt+VySPA1EWJvusosaoIFRdYWVBy0tkhjNqUFX81gFqYfCYrd4rigH7r2qzxUq+G4tGrWZVcNNnqwmExBqRHBt4S9ED4+WCzbpiEdVdv0E/Y+i3+0XfnZtbtm5QRO4a0Zc3qBU3jT7kep31YCs4J+7JtgkGUWmad1SeqquUrCEbL0fhLyQro8GTyCRkhIeQjPsm6nQ7z9lWtfdq6HUzYFUt+v2uPhOcj8fh4uQaErSACKhxBpQHyWj1yBzp10yIAHpZvp9ogEAo8wgHxTwiVKQUcUpE+ECDqoy2KclAyYm476SAY1gKv7PJz+NraKqG2fiMaMiihuf2vU2/JZRqLwshESMR0xB5XOm1sE6f6PiKaNiGiSC1vTwIJqO8ZJOqV5uhSyiAKgmTA3QIBWDyHSoCOOxN8ahv79bjuJBeFX/uR0A6jq2t4wLhBMS707woTai84E/AI=);" vertex="1" parent="PzDvmg0Q03V_2hOCLgDr-16">
          <mxGeometry x="124" y="85" width="47" height="52" as="geometry" />
        </mxCell>
        <mxCell id="PzDvmg0Q03V_2hOCLgDr-51" value="" style="sketch=0;shadow=0;dashed=0;html=1;strokeColor=#660000;fillColor=#FF9999;labelPosition=center;verticalLabelPosition=bottom;verticalAlign=top;outlineConnect=0;align=center;shape=stencil(tVbRcoIwEPwaXm+SXALksUPb/4hKK1MEB1Dbv+9B1GmI2pjRGV7YI3ubzd2RBIt+bbZlIpjpt+VySPA1EWJvusosaoIFRdYWVBy0tkhjNqUFX81gFqYfCYrd4rigH7r2qzxUq+G4tGrWZVcNNnqwmExBqRHBt4S9ED4+WCzbpiEdVdv0E/Y+i3+0XfnZtbtm5QRO4a0Zc3qBU3jT7kep31YCs4J+7JtgkGUWmad1SeqquUrCEbL0fhLyQro8GTyCRkhIeQjPsm6nQ7z9lWtfdq6HUzYFUt+v2uPhOcj8fh4uQaErSACKhxBpQHyWj1yBzp10yIAHpZvp9ogEAo8wgHxTwiVKQUcUpE+ECDqoy2KclAyYm476SAY1gKv7PJz+NraKqG2fiMaMiihuf2vU2/JZRqLwshESMR0xB5XOm1sE6f6PiKaNiGiSC1vTwIJqO8ZJOqV5uhSyiAKgmTA3QIBWDyHSoCOOxN8ahv79bjuJBeFX/uR0A6jq2t4wLhBMS707woTai84E/AI=);" vertex="1" parent="PzDvmg0Q03V_2hOCLgDr-16">
          <mxGeometry x="124" y="39" width="47" height="52" as="geometry" />
        </mxCell>
        <mxCell id="PzDvmg0Q03V_2hOCLgDr-100" value="" style="sketch=0;shadow=0;dashed=0;html=1;strokeColor=#004C99;fillColor=#007FFF;labelPosition=center;verticalLabelPosition=bottom;verticalAlign=top;outlineConnect=0;align=center;shape=mxgraph.office.databases.database_cube;" vertex="1" parent="PzDvmg0Q03V_2hOCLgDr-16">
          <mxGeometry x="20" y="30" width="47" height="52" as="geometry" />
        </mxCell>
        <mxCell id="PzDvmg0Q03V_2hOCLgDr-101" value="" style="sketch=0;shadow=0;dashed=0;html=1;strokeColor=#004C99;fillColor=#CCFFCC;labelPosition=center;verticalLabelPosition=bottom;verticalAlign=top;outlineConnect=0;align=center;shape=stencil(tVbRcoIwEPwaXm+SXALksUPb/4hKK1MEB1Dbv+9B1GmI2pjRGV7YI3ubzd2RBIt+bbZlIpjpt+VySPA1EWJvusosaoIFRdYWVBy0tkhjNqUFX81gFqYfCYrd4rigH7r2qzxUq+G4tGrWZVcNNnqwmExBqRHBt4S9ED4+WCzbpiEdVdv0E/Y+i3+0XfnZtbtm5QRO4a0Zc3qBU3jT7kep31YCs4J+7JtgkGUWmad1SeqquUrCEbL0fhLyQro8GTyCRkhIeQjPsm6nQ7z9lWtfdq6HUzYFUt+v2uPhOcj8fh4uQaErSACKhxBpQHyWj1yBzp10yIAHpZvp9ogEAo8wgHxTwiVKQUcUpE+ECDqoy2KclAyYm476SAY1gKv7PJz+NraKqG2fiMaMiihuf2vU2/JZRqLwshESMR0xB5XOm1sE6f6PiKaNiGiSC1vTwIJqO8ZJOqV5uhSyiAKgmTA3QIBWDyHSoCOOxN8ahv79bjuJBeFX/uR0A6jq2t4wLhBMS707woTai84E/AI=);" vertex="1" parent="PzDvmg0Q03V_2hOCLgDr-16">
          <mxGeometry x="20" y="57" width="47" height="52" as="geometry" />
        </mxCell>
        <mxCell id="PzDvmg0Q03V_2hOCLgDr-102" value="" style="sketch=0;shadow=0;dashed=0;html=1;strokeColor=#004C99;fillColor=#CDA2BE;labelPosition=center;verticalLabelPosition=bottom;verticalAlign=top;outlineConnect=0;align=center;shape=stencil(tVbRcoIwEPwaXm+SXALksUPb/4hKK1MEB1Dbv+9B1GmI2pjRGV7YI3ubzd2RBIt+bbZlIpjpt+VySPA1EWJvusosaoIFRdYWVBy0tkhjNqUFX81gFqYfCYrd4rigH7r2qzxUq+G4tGrWZVcNNnqwmExBqRHBt4S9ED4+WCzbpiEdVdv0E/Y+i3+0XfnZtbtm5QRO4a0Zc3qBU3jT7kep31YCs4J+7JtgkGUWmad1SeqquUrCEbL0fhLyQro8GTyCRkhIeQjPsm6nQ7z9lWtfdq6HUzYFUt+v2uPhOcj8fh4uQaErSACKhxBpQHyWj1yBzp10yIAHpZvp9ogEAo8wgHxTwiVKQUcUpE+ECDqoy2KclAyYm476SAY1gKv7PJz+NraKqG2fiMaMiihuf2vU2/JZRqLwshESMR0xB5XOm1sE6f6PiKaNiGiSC1vTwIJqO8ZJOqV5uhSyiAKgmTA3QIBWDyHSoCOOxN8ahv79bjuJBeFX/uR0A6jq2t4wLhBMS707woTai84E/AI=);" vertex="1" parent="PzDvmg0Q03V_2hOCLgDr-16">
          <mxGeometry x="20" y="66" width="47" height="52" as="geometry" />
        </mxCell>
        <mxCell id="PzDvmg0Q03V_2hOCLgDr-103" value="" style="sketch=0;shadow=0;dashed=0;html=1;strokeColor=#004C99;fillColor=#FF66B3;labelPosition=center;verticalLabelPosition=bottom;verticalAlign=top;outlineConnect=0;align=center;shape=stencil(tVbRcoIwEPwaXm+SXALksUPb/4hKK1MEB1Dbv+9B1GmI2pjRGV7YI3ubzd2RBIt+bbZlIpjpt+VySPA1EWJvusosaoIFRdYWVBy0tkhjNqUFX81gFqYfCYrd4rigH7r2qzxUq+G4tGrWZVcNNnqwmExBqRHBt4S9ED4+WCzbpiEdVdv0E/Y+i3+0XfnZtbtm5QRO4a0Zc3qBU3jT7kep31YCs4J+7JtgkGUWmad1SeqquUrCEbL0fhLyQro8GTyCRkhIeQjPsm6nQ7z9lWtfdq6HUzYFUt+v2uPhOcj8fh4uQaErSACKhxBpQHyWj1yBzp10yIAHpZvp9ogEAo8wgHxTwiVKQUcUpE+ECDqoy2KclAyYm476SAY1gKv7PJz+NraKqG2fiMaMiihuf2vU2/JZRqLwshESMR0xB5XOm1sE6f6PiKaNiGiSC1vTwIJqO8ZJOqV5uhSyiAKgmTA3QIBWDyHSoCOOxN8ahv79bjuJBeFX/uR0A6jq2t4wLhBMS707woTai84E/AI=);" vertex="1" parent="PzDvmg0Q03V_2hOCLgDr-16">
          <mxGeometry x="20" y="75" width="47" height="53" as="geometry" />
        </mxCell>
        <mxCell id="PzDvmg0Q03V_2hOCLgDr-104" value="" style="sketch=0;shadow=0;dashed=0;html=1;strokeColor=#004C99;fillColor=#CDA2BE;labelPosition=center;verticalLabelPosition=bottom;verticalAlign=top;outlineConnect=0;align=center;shape=stencil(tVbRcoIwEPwaXm+SXALksUPb/4hKK1MEB1Dbv+9B1GmI2pjRGV7YI3ubzd2RBIt+bbZlIpjpt+VySPA1EWJvusosaoIFRdYWVBy0tkhjNqUFX81gFqYfCYrd4rigH7r2qzxUq+G4tGrWZVcNNnqwmExBqRHBt4S9ED4+WCzbpiEdVdv0E/Y+i3+0XfnZtbtm5QRO4a0Zc3qBU3jT7kep31YCs4J+7JtgkGUWmad1SeqquUrCEbL0fhLyQro8GTyCRkhIeQjPsm6nQ7z9lWtfdq6HUzYFUt+v2uPhOcj8fh4uQaErSACKhxBpQHyWj1yBzp10yIAHpZvp9ogEAo8wgHxTwiVKQUcUpE+ECDqoy2KclAyYm476SAY1gKv7PJz+NraKqG2fiMaMiihuf2vU2/JZRqLwshESMR0xB5XOm1sE6f6PiKaNiGiSC1vTwIJqO8ZJOqV5uhSyiAKgmTA3QIBWDyHSoCOOxN8ahv79bjuJBeFX/uR0A6jq2t4wLhBMS707woTai84E/AI=);" vertex="1" parent="PzDvmg0Q03V_2hOCLgDr-16">
          <mxGeometry x="20" y="85" width="47" height="52" as="geometry" />
        </mxCell>
        <mxCell id="PzDvmg0Q03V_2hOCLgDr-105" value="" style="sketch=0;shadow=0;dashed=0;html=1;strokeColor=#004C99;fillColor=#FF9999;labelPosition=center;verticalLabelPosition=bottom;verticalAlign=top;outlineConnect=0;align=center;shape=stencil(tVbRcoIwEPwaXm+SXALksUPb/4hKK1MEB1Dbv+9B1GmI2pjRGV7YI3ubzd2RBIt+bbZlIpjpt+VySPA1EWJvusosaoIFRdYWVBy0tkhjNqUFX81gFqYfCYrd4rigH7r2qzxUq+G4tGrWZVcNNnqwmExBqRHBt4S9ED4+WCzbpiEdVdv0E/Y+i3+0XfnZtbtm5QRO4a0Zc3qBU3jT7kep31YCs4J+7JtgkGUWmad1SeqquUrCEbL0fhLyQro8GTyCRkhIeQjPsm6nQ7z9lWtfdq6HUzYFUt+v2uPhOcj8fh4uQaErSACKhxBpQHyWj1yBzp10yIAHpZvp9ogEAo8wgHxTwiVKQUcUpE+ECDqoy2KclAyYm476SAY1gKv7PJz+NraKqG2fiMaMiihuf2vU2/JZRqLwshESMR0xB5XOm1sE6f6PiKaNiGiSC1vTwIJqO8ZJOqV5uhSyiAKgmTA3QIBWDyHSoCOOxN8ahv79bjuJBeFX/uR0A6jq2t4wLhBMS707woTai84E/AI=);" vertex="1" parent="PzDvmg0Q03V_2hOCLgDr-16">
          <mxGeometry x="20" y="39" width="47" height="52" as="geometry" />
        </mxCell>
        <mxCell id="PzDvmg0Q03V_2hOCLgDr-117" value="" style="sketch=0;shadow=0;dashed=0;html=1;strokeColor=#660000;fillColor=#fff2cc;labelPosition=center;verticalLabelPosition=bottom;verticalAlign=top;outlineConnect=0;align=center;shape=mxgraph.office.databases.database_cube;" vertex="1" parent="PzDvmg0Q03V_2hOCLgDr-16">
          <mxGeometry x="210" y="30" width="47" height="52" as="geometry" />
        </mxCell>
        <mxCell id="PzDvmg0Q03V_2hOCLgDr-17" value="&lt;div&gt;OiDB&lt;/div&gt;" style="points=[[0,0],[0.25,0],[0.5,0],[0.75,0],[1,0],[1,0.25],[1,0.5],[1,0.75],[1,1],[0.75,1],[0.5,1],[0.25,1],[0,1],[0,0.75],[0,0.5],[0,0.25]];outlineConnect=0;gradientColor=none;html=1;whiteSpace=wrap;fontSize=12;fontStyle=0;container=1;pointerEvents=0;collapsible=0;recursiveResize=0;shape=mxgraph.aws4.group;grIcon=mxgraph.aws4.group_on_premise;strokeColor=#CC6600;fillColor=none;verticalAlign=top;align=left;spacingLeft=30;fontColor=#5A6C86;dashed=0;" vertex="1" parent="1">
          <mxGeometry x="520" y="183" width="130" height="161" as="geometry" />
        </mxCell>
        <mxCell id="PzDvmg0Q03V_2hOCLgDr-113" value="" style="sketch=0;pointerEvents=1;shadow=0;dashed=0;html=1;strokeColor=none;fillColor=#505050;labelPosition=center;verticalLabelPosition=bottom;verticalAlign=top;outlineConnect=0;align=center;shape=mxgraph.office.services.web_services;fontFamily=Helvetica;fontSize=12;fontColor=#230E3E;comic=0;" vertex="1" parent="PzDvmg0Q03V_2hOCLgDr-17">
          <mxGeometry x="65" y="112" width="60" height="56" as="geometry" />
        </mxCell>
        <mxCell id="PzDvmg0Q03V_2hOCLgDr-114" value="" style="sketch=0;pointerEvents=1;shadow=0;dashed=0;html=1;strokeColor=none;fillColor=#505050;labelPosition=center;verticalLabelPosition=bottom;verticalAlign=top;outlineConnect=0;align=center;shape=mxgraph.office.concepts.web_page;comic=0;fontFamily=Helvetica;fontSize=12;fontColor=#230E3E;" vertex="1" parent="PzDvmg0Q03V_2hOCLgDr-17">
          <mxGeometry x="10" y="115" width="50" height="54" as="geometry" />
        </mxCell>
        <mxCell id="PzDvmg0Q03V_2hOCLgDr-26" value="SPICA" style="points=[[0,0],[0.25,0],[0.5,0],[0.75,0],[1,0],[1,0.25],[1,0.5],[1,0.75],[1,1],[0.75,1],[0.5,1],[0.25,1],[0,1],[0,0.75],[0,0.5],[0,0.25]];outlineConnect=0;gradientColor=none;html=1;whiteSpace=wrap;fontSize=12;fontStyle=0;container=1;pointerEvents=0;collapsible=0;recursiveResize=0;shape=mxgraph.aws4.group;grIcon=mxgraph.aws4.group_on_premise;strokeColor=#5A6C86;fillColor=none;verticalAlign=top;align=left;spacingLeft=30;fontColor=#5A6C86;dashed=0;" vertex="1" parent="1">
          <mxGeometry x="400" y="600" width="280" height="240" as="geometry" />
        </mxCell>
        <mxCell id="PzDvmg0Q03V_2hOCLgDr-87" value="" style="sketch=0;pointerEvents=1;shadow=0;dashed=0;html=1;strokeColor=none;fillColor=#505050;labelPosition=center;verticalLabelPosition=bottom;verticalAlign=top;outlineConnect=0;align=center;shape=mxgraph.office.services.network_file_share_service;comic=0;fontFamily=Helvetica;fontSize=12;fontColor=#230E3E;" vertex="1" parent="PzDvmg0Q03V_2hOCLgDr-26">
          <mxGeometry x="20" y="140" width="55" height="53" as="geometry" />
        </mxCell>
        <mxCell id="PzDvmg0Q03V_2hOCLgDr-63" value="" style="sketch=0;pointerEvents=1;shadow=0;dashed=0;html=1;strokeColor=none;fillColor=#505050;labelPosition=center;verticalLabelPosition=bottom;verticalAlign=top;outlineConnect=0;align=center;shape=mxgraph.office.users.administrator;fontFamily=Helvetica;fontSize=12;fontColor=#230E3E;" vertex="1" parent="1">
          <mxGeometry x="110" y="461" width="58" height="56" as="geometry" />
        </mxCell>
        <mxCell id="PzDvmg0Q03V_2hOCLgDr-64" value="" style="sketch=0;pointerEvents=1;shadow=0;dashed=0;html=1;strokeColor=none;fillColor=#505050;labelPosition=center;verticalLabelPosition=bottom;verticalAlign=top;outlineConnect=0;align=center;shape=mxgraph.office.users.credentials;fontFamily=Helvetica;fontSize=12;fontColor=#230E3E;" vertex="1" parent="1">
          <mxGeometry x="110" y="403" width="56" height="58" as="geometry" />
        </mxCell>
        <mxCell id="PzDvmg0Q03V_2hOCLgDr-65" value="" style="sketch=0;pointerEvents=1;shadow=0;dashed=0;html=1;strokeColor=none;fillColor=#505050;labelPosition=center;verticalLabelPosition=bottom;verticalAlign=top;outlineConnect=0;align=center;shape=mxgraph.office.users.user;fontFamily=Helvetica;fontSize=12;fontColor=#230E3E;" vertex="1" parent="1">
          <mxGeometry x="110" y="350" width="46" height="50" as="geometry" />
        </mxCell>
        <mxCell id="PzDvmg0Q03V_2hOCLgDr-71" value="&lt;div&gt;&lt;br&gt;&lt;/div&gt;&lt;div&gt;&lt;br&gt;&lt;/div&gt;&lt;div&gt;&lt;br&gt;&lt;/div&gt;&lt;div&gt;Anonymous&lt;/div&gt;&lt;div&gt;&lt;br&gt;&lt;/div&gt;&lt;div&gt;&lt;br&gt;&lt;/div&gt;&lt;div&gt;&lt;br&gt;&lt;/div&gt;&lt;div&gt;Authenticated&lt;/div&gt;&lt;div&gt;&lt;br&gt;&lt;/div&gt;&lt;div&gt;&lt;br&gt;&lt;/div&gt;&lt;div&gt;&lt;br&gt;&lt;/div&gt;&lt;div&gt;Admin&lt;br&gt;&lt;/div&gt;" style="text;html=1;align=center;verticalAlign=middle;resizable=0;points=[];autosize=1;strokeColor=none;fillColor=none;fontSize=12;fontFamily=Helvetica;fontColor=#230E3E;" vertex="1" parent="1">
          <mxGeometry x="23" y="332" width="90" height="170" as="geometry" />
        </mxCell>
        <mxCell id="PzDvmg0Q03V_2hOCLgDr-73" value="" style="sketch=0;pointerEvents=1;shadow=0;dashed=0;html=1;strokeColor=none;fillColor=#505050;labelPosition=center;verticalLabelPosition=bottom;verticalAlign=top;outlineConnect=0;align=center;shape=mxgraph.office.concepts.file_key;fontFamily=Helvetica;fontSize=12;fontColor=#230E3E;" vertex="1" parent="1">
          <mxGeometry x="700" y="464" width="48" height="53" as="geometry" />
        </mxCell>
        <mxCell id="PzDvmg0Q03V_2hOCLgDr-77" value="&lt;div&gt;ESO Archive&lt;br&gt;&lt;/div&gt;" style="points=[[0,0],[0.25,0],[0.5,0],[0.75,0],[1,0],[1,0.25],[1,0.5],[1,0.75],[1,1],[0.75,1],[0.5,1],[0.25,1],[0,1],[0,0.75],[0,0.5],[0,0.25]];outlineConnect=0;gradientColor=none;html=1;whiteSpace=wrap;fontSize=12;fontStyle=0;container=1;pointerEvents=0;collapsible=0;recursiveResize=0;shape=mxgraph.aws4.group;grIcon=mxgraph.aws4.group_on_premise;strokeColor=#5A6C86;fillColor=none;verticalAlign=top;align=left;spacingLeft=30;fontColor=#5A6C86;dashed=0;" vertex="1" parent="1">
          <mxGeometry x="22" y="13.5" width="168" height="146.5" as="geometry" />
        </mxCell>
        <mxCell id="PzDvmg0Q03V_2hOCLgDr-78" value="" style="sketch=0;shadow=0;dashed=0;html=1;strokeColor=#007FFF;fillColor=#007FFF;labelPosition=center;verticalLabelPosition=bottom;verticalAlign=top;outlineConnect=0;align=center;shape=mxgraph.office.databases.database_cube;" vertex="1" parent="PzDvmg0Q03V_2hOCLgDr-77">
          <mxGeometry x="6" y="64" width="47" height="52" as="geometry" />
        </mxCell>
        <mxCell id="PzDvmg0Q03V_2hOCLgDr-84" value="" style="sketch=0;pointerEvents=1;shadow=0;dashed=0;html=1;strokeColor=#007FFF;fillColor=#007FFF;labelPosition=center;verticalLabelPosition=bottom;verticalAlign=top;outlineConnect=0;align=center;shape=mxgraph.office.concepts.documents;fontFamily=Helvetica;fontSize=12;fontColor=#ffffff;" vertex="1" parent="PzDvmg0Q03V_2hOCLgDr-77">
          <mxGeometry x="83" y="73" width="46" height="54" as="geometry" />
        </mxCell>
        <mxCell id="PzDvmg0Q03V_2hOCLgDr-115" value="http://archive.eso.org/tap_obs" style="text;html=1;align=center;verticalAlign=middle;resizable=0;points=[];autosize=1;strokeColor=none;fillColor=none;fontSize=9;fontFamily=Helvetica;fontColor=#230E3E;" vertex="1" parent="PzDvmg0Q03V_2hOCLgDr-77">
          <mxGeometry x="-2.5" y="26.5" width="130" height="20" as="geometry" />
        </mxCell>
        <mxCell id="PzDvmg0Q03V_2hOCLgDr-116" value="http://archive.eso.org/hdr?DpId=..." style="text;html=1;align=center;verticalAlign=middle;resizable=0;points=[];autosize=1;strokeColor=none;fillColor=none;fontSize=9;fontFamily=Helvetica;fontColor=#230E3E;" vertex="1" parent="PzDvmg0Q03V_2hOCLgDr-77">
          <mxGeometry x="22" y="40" width="150" height="20" as="geometry" />
        </mxCell>
        <mxCell id="PzDvmg0Q03V_2hOCLgDr-90" value="User Accounts" style="points=[[0,0],[0.25,0],[0.5,0],[0.75,0],[1,0],[1,0.25],[1,0.5],[1,0.75],[1,1],[0.75,1],[0.5,1],[0.25,1],[0,1],[0,0.75],[0,0.5],[0,0.25]];outlineConnect=0;gradientColor=none;html=1;whiteSpace=wrap;fontSize=12;fontStyle=0;container=1;pointerEvents=0;collapsible=0;recursiveResize=0;shape=mxgraph.aws4.group;grIcon=mxgraph.aws4.group_on_premise;strokeColor=#CC6600;fillColor=none;verticalAlign=top;align=left;spacingLeft=30;fontColor=#5A6C86;dashed=0;" vertex="1" parent="1">
          <mxGeometry x="730" y="183" width="130" height="163" as="geometry" />
        </mxCell>
        <mxCell id="PzDvmg0Q03V_2hOCLgDr-91" value="" style="sketch=0;pointerEvents=1;shadow=0;dashed=0;html=1;strokeColor=none;fillColor=#505050;labelPosition=center;verticalLabelPosition=bottom;verticalAlign=top;outlineConnect=0;align=center;shape=mxgraph.office.concepts.web_page;comic=0;fontFamily=Helvetica;fontSize=12;fontColor=#230E3E;" vertex="1" parent="PzDvmg0Q03V_2hOCLgDr-90">
          <mxGeometry x="12" y="107" width="50" height="54" as="geometry" />
        </mxCell>
        <mxCell id="PzDvmg0Q03V_2hOCLgDr-85" value="" style="sketch=0;pointerEvents=1;shadow=0;dashed=0;html=1;strokeColor=none;fillColor=#505050;labelPosition=center;verticalLabelPosition=bottom;verticalAlign=top;outlineConnect=0;align=center;shape=mxgraph.office.services.web_services;fontFamily=Helvetica;fontSize=12;fontColor=#230E3E;comic=0;" vertex="1" parent="PzDvmg0Q03V_2hOCLgDr-90">
          <mxGeometry x="65" y="107" width="60" height="56" as="geometry" />
        </mxCell>
        <mxCell id="PzDvmg0Q03V_2hOCLgDr-96" style="edgeStyle=orthogonalEdgeStyle;rounded=0;orthogonalLoop=1;jettySize=auto;html=1;fontFamily=Helvetica;fontSize=12;fontColor=#230E3E;" edge="1" parent="1" source="PzDvmg0Q03V_2hOCLgDr-84" target="PzDvmg0Q03V_2hOCLgDr-86">
          <mxGeometry relative="1" as="geometry">
            <mxPoint x="123" y="248" as="targetPoint" />
            <Array as="points">
              <mxPoint x="123" y="248" />
            </Array>
          </mxGeometry>
        </mxCell>
        <mxCell id="PzDvmg0Q03V_2hOCLgDr-98" style="edgeStyle=orthogonalEdgeStyle;rounded=0;orthogonalLoop=1;jettySize=auto;html=1;fontFamily=Helvetica;fontSize=12;fontColor=#230E3E;" edge="1" parent="1" source="PzDvmg0Q03V_2hOCLgDr-78">
          <mxGeometry relative="1" as="geometry">
            <mxPoint x="340" y="248" as="targetPoint" />
            <mxPoint x="53" y="130" as="sourcePoint" />
            <Array as="points">
              <mxPoint x="53" y="248" />
            </Array>
          </mxGeometry>
        </mxCell>
        <mxCell id="PzDvmg0Q03V_2hOCLgDr-99" value="2 updates per day" style="edgeLabel;html=1;align=center;verticalAlign=middle;resizable=0;points=[];fontSize=12;fontFamily=Helvetica;fontColor=#230E3E;" vertex="1" connectable="0" parent="PzDvmg0Q03V_2hOCLgDr-98">
          <mxGeometry x="0.2529" relative="1" as="geometry">
            <mxPoint x="53" y="-10" as="offset" />
          </mxGeometry>
        </mxCell>
        <mxCell id="PzDvmg0Q03V_2hOCLgDr-106" value="" style="sketch=0;pointerEvents=1;shadow=0;dashed=0;html=1;strokeColor=none;fillColor=#505050;labelPosition=center;verticalLabelPosition=bottom;verticalAlign=top;outlineConnect=0;align=center;shape=mxgraph.office.concepts.settings;comic=0;fontFamily=Helvetica;fontSize=12;fontColor=#230E3E;" vertex="1" parent="1">
          <mxGeometry x="1200" y="99" width="41" height="41" as="geometry" />
        </mxCell>
        <mxCell id="PzDvmg0Q03V_2hOCLgDr-58" value="" style="group" vertex="1" connectable="0" parent="1">
          <mxGeometry x="1196.5" y="20" width="127" height="67.5" as="geometry" />
        </mxCell>
        <mxCell id="PzDvmg0Q03V_2hOCLgDr-53" value="" style="sketch=0;shadow=0;dashed=0;html=1;strokeColor=#000000;fillColor=default;labelPosition=center;verticalLabelPosition=bottom;verticalAlign=top;outlineConnect=0;align=center;shape=mxgraph.office.databases.database_cube;" vertex="1" parent="PzDvmg0Q03V_2hOCLgDr-58">
          <mxGeometry width="47" height="48.75" as="geometry" />
        </mxCell>
        <mxCell id="PzDvmg0Q03V_2hOCLgDr-52" value="" style="sketch=0;shadow=0;dashed=0;html=1;strokeColor=#FFFFFF;fillColor=#FFFFFF;labelPosition=center;verticalLabelPosition=bottom;verticalAlign=top;outlineConnect=0;align=center;shape=stencil(tVbRcoIwEPwaXm+SXALksUPb/4hKK1MEB1Dbv+9B1GmI2pjRGV7YI3ubzd2RBIt+bbZlIpjpt+VySPA1EWJvusosaoIFRdYWVBy0tkhjNqUFX81gFqYfCYrd4rigH7r2qzxUq+G4tGrWZVcNNnqwmExBqRHBt4S9ED4+WCzbpiEdVdv0E/Y+i3+0XfnZtbtm5QRO4a0Zc3qBU3jT7kep31YCs4J+7JtgkGUWmad1SeqquUrCEbL0fhLyQro8GTyCRkhIeQjPsm6nQ7z9lWtfdq6HUzYFUt+v2uPhOcj8fh4uQaErSACKhxBpQHyWj1yBzp10yIAHpZvp9ogEAo8wgHxTwiVKQUcUpE+ECDqoy2KclAyYm476SAY1gKv7PJz+NraKqG2fiMaMiihuf2vU2/JZRqLwshESMR0xB5XOm1sE6f6PiKaNiGiSC1vTwIJqO8ZJOqV5uhSyiAKgmTA3QIBWDyHSoCOOxN8ahv79bjuJBeFX/uR0A6jq2t4wLhBMS707woTai84E/AI=);" vertex="1" parent="PzDvmg0Q03V_2hOCLgDr-58">
          <mxGeometry y="7.5" width="47" height="48.75" as="geometry" />
        </mxCell>
        <mxCell id="PzDvmg0Q03V_2hOCLgDr-54" value="" style="sketch=0;shadow=0;dashed=0;html=1;strokeColor=#FFFFFF;fillColor=#FFFFFF;labelPosition=center;verticalLabelPosition=bottom;verticalAlign=top;outlineConnect=0;align=center;shape=stencil(tVbRcoIwEPwaXm+SXALksUPb/4hKK1MEB1Dbv+9B1GmI2pjRGV7YI3ubzd2RBIt+bbZlIpjpt+VySPA1EWJvusosaoIFRdYWVBy0tkhjNqUFX81gFqYfCYrd4rigH7r2qzxUq+G4tGrWZVcNNnqwmExBqRHBt4S9ED4+WCzbpiEdVdv0E/Y+i3+0XfnZtbtm5QRO4a0Zc3qBU3jT7kep31YCs4J+7JtgkGUWmad1SeqquUrCEbL0fhLyQro8GTyCRkhIeQjPsm6nQ7z9lWtfdq6HUzYFUt+v2uPhOcj8fh4uQaErSACKhxBpQHyWj1yBzp10yIAHpZvp9ogEAo8wgHxTwiVKQUcUpE+ECDqoy2KclAyYm476SAY1gKv7PJz+NraKqG2fiMaMiihuf2vU2/JZRqLwshESMR0xB5XOm1sE6f6PiKaNiGiSC1vTwIJqO8ZJOqV5uhSyiAKgmTA3QIBWDyHSoCOOxN8ahv79bjuJBeFX/uR0A6jq2t4wLhBMS707woTai84E/AI=);" vertex="1" parent="PzDvmg0Q03V_2hOCLgDr-58">
          <mxGeometry y="8.4375" width="47" height="48.75" as="geometry" />
        </mxCell>
        <mxCell id="PzDvmg0Q03V_2hOCLgDr-55" value="" style="sketch=0;shadow=0;dashed=0;html=1;strokeColor=#FFFFFF;fillColor=#FFFFFF;labelPosition=center;verticalLabelPosition=bottom;verticalAlign=top;outlineConnect=0;align=center;shape=stencil(tVbRcoIwEPwaXm+SXALksUPb/4hKK1MEB1Dbv+9B1GmI2pjRGV7YI3ubzd2RBIt+bbZlIpjpt+VySPA1EWJvusosaoIFRdYWVBy0tkhjNqUFX81gFqYfCYrd4rigH7r2qzxUq+G4tGrWZVcNNnqwmExBqRHBt4S9ED4+WCzbpiEdVdv0E/Y+i3+0XfnZtbtm5QRO4a0Zc3qBU3jT7kep31YCs4J+7JtgkGUWmad1SeqquUrCEbL0fhLyQro8GTyCRkhIeQjPsm6nQ7z9lWtfdq6HUzYFUt+v2uPhOcj8fh4uQaErSACKhxBpQHyWj1yBzp10yIAHpZvp9ogEAo8wgHxTwiVKQUcUpE+ECDqoy2KclAyYm476SAY1gKv7PJz+NraKqG2fiMaMiihuf2vU2/JZRqLwshESMR0xB5XOm1sE6f6PiKaNiGiSC1vTwIJqO8ZJOqV5uhSyiAKgmTA3QIBWDyHSoCOOxN8ahv79bjuJBeFX/uR0A6jq2t4wLhBMS707woTai84E/AI=);" vertex="1" parent="PzDvmg0Q03V_2hOCLgDr-58">
          <mxGeometry y="8.4375" width="47" height="48.75" as="geometry" />
        </mxCell>
        <mxCell id="PzDvmg0Q03V_2hOCLgDr-56" value="" style="sketch=0;shadow=0;dashed=0;html=1;strokeColor=#FFFFFF;fillColor=#FFFFFF;labelPosition=center;verticalLabelPosition=bottom;verticalAlign=top;outlineConnect=0;align=center;shape=stencil(tVbRcoIwEPwaXm+SXALksUPb/4hKK1MEB1Dbv+9B1GmI2pjRGV7YI3ubzd2RBIt+bbZlIpjpt+VySPA1EWJvusosaoIFRdYWVBy0tkhjNqUFX81gFqYfCYrd4rigH7r2qzxUq+G4tGrWZVcNNnqwmExBqRHBt4S9ED4+WCzbpiEdVdv0E/Y+i3+0XfnZtbtm5QRO4a0Zc3qBU3jT7kep31YCs4J+7JtgkGUWmad1SeqquUrCEbL0fhLyQro8GTyCRkhIeQjPsm6nQ7z9lWtfdq6HUzYFUt+v2uPhOcj8fh4uQaErSACKhxBpQHyWj1yBzp10yIAHpZvp9ogEAo8wgHxTwiVKQUcUpE+ECDqoy2KclAyYm476SAY1gKv7PJz+NraKqG2fiMaMiihuf2vU2/JZRqLwshESMR0xB5XOm1sE6f6PiKaNiGiSC1vTwIJqO8ZJOqV5uhSyiAKgmTA3QIBWDyHSoCOOxN8ahv79bjuJBeFX/uR0A6jq2t4wLhBMS707woTai84E/AI=);" vertex="1" parent="PzDvmg0Q03V_2hOCLgDr-58">
          <mxGeometry y="18.75" width="47" height="48.75" as="geometry" />
        </mxCell>
        <mxCell id="PzDvmg0Q03V_2hOCLgDr-57" value="" style="sketch=0;shadow=0;dashed=0;html=1;strokeColor=#FFFFFF;fillColor=#FFFFFF;labelPosition=center;verticalLabelPosition=bottom;verticalAlign=top;outlineConnect=0;align=center;shape=stencil(tVbRcoIwEPwaXm+SXALksUPb/4hKK1MEB1Dbv+9B1GmI2pjRGV7YI3ubzd2RBIt+bbZlIpjpt+VySPA1EWJvusosaoIFRdYWVBy0tkhjNqUFX81gFqYfCYrd4rigH7r2qzxUq+G4tGrWZVcNNnqwmExBqRHBt4S9ED4+WCzbpiEdVdv0E/Y+i3+0XfnZtbtm5QRO4a0Zc3qBU3jT7kep31YCs4J+7JtgkGUWmad1SeqquUrCEbL0fhLyQro8GTyCRkhIeQjPsm6nQ7z9lWtfdq6HUzYFUt+v2uPhOcj8fh4uQaErSACKhxBpQHyWj1yBzp10yIAHpZvp9ogEAo8wgHxTwiVKQUcUpE+ECDqoy2KclAyYm476SAY1gKv7PJz+NraKqG2fiMaMiihuf2vU2/JZRqLwshESMR0xB5XOm1sE6f6PiKaNiGiSC1vTwIJqO8ZJOqV5uhSyiAKgmTA3QIBWDyHSoCOOxN8ahv79bjuJBeFX/uR0A6jq2t4wLhBMS707woTai84E/AI=);" vertex="1" parent="PzDvmg0Q03V_2hOCLgDr-58">
          <mxGeometry y="16.875" width="47" height="48.75" as="geometry" />
        </mxCell>
        <mxCell id="PzDvmg0Q03V_2hOCLgDr-67" value="" style="sketch=0;shadow=0;dashed=0;html=1;strokeColor=none;fillColor=#505050;labelPosition=center;verticalLabelPosition=bottom;verticalAlign=top;outlineConnect=0;align=center;shape=mxgraph.office.databases.database;fontFamily=Helvetica;fontSize=12;fontColor=#230E3E;" vertex="1" parent="PzDvmg0Q03V_2hOCLgDr-58">
          <mxGeometry x="9.5" y="34.5" width="28" height="38" as="geometry" />
        </mxCell>
        <mxCell id="PzDvmg0Q03V_2hOCLgDr-108" value="&lt;div&gt;METADATA&lt;/div&gt;" style="text;html=1;align=center;verticalAlign=middle;resizable=0;points=[];autosize=1;strokeColor=none;fillColor=none;fontSize=12;fontFamily=Helvetica;fontColor=#230E3E;" vertex="1" parent="PzDvmg0Q03V_2hOCLgDr-58">
          <mxGeometry x="47" width="80" height="20" as="geometry" />
        </mxCell>
        <mxCell id="PzDvmg0Q03V_2hOCLgDr-69" value="FILES" style="text;html=1;align=center;verticalAlign=middle;resizable=0;points=[];autosize=1;strokeColor=none;fillColor=none;fontSize=12;fontFamily=Helvetica;fontColor=#230E3E;" vertex="1" parent="PzDvmg0Q03V_2hOCLgDr-58">
          <mxGeometry x="62" y="43.5" width="50" height="20" as="geometry" />
        </mxCell>
        <mxCell id="PzDvmg0Q03V_2hOCLgDr-107" value="PROCESS" style="text;html=1;align=center;verticalAlign=middle;resizable=0;points=[];autosize=1;strokeColor=none;fillColor=none;fontSize=12;fontFamily=Helvetica;fontColor=#230E3E;" vertex="1" parent="1">
          <mxGeometry x="1248" y="109.5" width="70" height="20" as="geometry" />
        </mxCell>
        <mxCell id="PzDvmg0Q03V_2hOCLgDr-109" value="PIONIER " style="points=[[0,0],[0.25,0],[0.5,0],[0.75,0],[1,0],[1,0.25],[1,0.5],[1,0.75],[1,1],[0.75,1],[0.5,1],[0.25,1],[0,1],[0,0.75],[0,0.5],[0,0.25]];outlineConnect=0;gradientColor=none;html=1;whiteSpace=wrap;fontSize=12;fontStyle=0;container=1;pointerEvents=0;collapsible=0;recursiveResize=0;shape=mxgraph.aws4.group;grIcon=mxgraph.aws4.group_on_premise;strokeColor=#5A6C86;fillColor=none;verticalAlign=top;align=left;spacingLeft=30;fontColor=#5A6C86;dashed=0;" vertex="1" parent="1">
          <mxGeometry x="760" y="420" width="280" height="240" as="geometry" />
        </mxCell>
        <mxCell id="PzDvmg0Q03V_2hOCLgDr-111" value="" style="sketch=0;pointerEvents=1;shadow=0;dashed=0;html=1;strokeColor=none;fillColor=#505050;labelPosition=center;verticalLabelPosition=bottom;verticalAlign=top;outlineConnect=0;align=center;shape=mxgraph.office.services.network_file_share_service;comic=0;fontFamily=Helvetica;fontSize=12;fontColor=#230E3E;" vertex="1" parent="PzDvmg0Q03V_2hOCLgDr-109">
          <mxGeometry x="20" y="140" width="55" height="53" as="geometry" />
        </mxCell>
        <mxCell id="PzDvmg0Q03V_2hOCLgDr-81" value="" style="sketch=0;pointerEvents=1;shadow=0;dashed=0;html=1;strokeColor=none;fillColor=#505050;labelPosition=center;verticalLabelPosition=bottom;verticalAlign=top;outlineConnect=0;align=center;shape=mxgraph.office.concepts.documents;fontFamily=Helvetica;fontSize=12;fontColor=#230E3E;" vertex="1" parent="PzDvmg0Q03V_2hOCLgDr-109">
          <mxGeometry x="117" y="60" width="46" height="54" as="geometry" />
        </mxCell>
      </root>
    </mxGraphModel>
  </diagram>
</mxfile>
